<svg xmlns="http://www.w3.org/2000/svg" xmlns:xlink="http://www.w3.org/1999/xlink" width="42" height="42" viewBox="0 0 42 42">
  <defs>
    <clipPath id="clip-path">
      <rect id="Rectangle_16983" data-name="Rectangle 16983" width="42" height="42" transform="translate(92 7534)" fill="#fff"/>
    </clipPath>
  </defs>
  <g id="Mask_Group_25" data-name="Mask Group 25" transform="translate(-92 -7534)" clip-path="url(#clip-path)">
    <g id="phone-call" transform="translate(92 7534)">
      <path id="Path_11029" data-name="Path 11029" d="M0,0H42V42H0Z" fill="none"/>
      <path id="Path_11030" data-name="Path 11030" d="M8.75,7h7l3.5,8.75-4.375,2.625a19.25,19.25,0,0,0,8.75,8.75L26.25,22.75,35,26.25v7a3.5,3.5,0,0,1-3.5,3.5A28,28,0,0,1,5.25,10.5,3.5,3.5,0,0,1,8.75,7" fill="none" stroke="#4b342c" stroke-linecap="round" stroke-linejoin="round" stroke-width="2"/>
      <path id="Path_11031" data-name="Path 11031" d="M26.25,12.25a3.5,3.5,0,0,1,3.5,3.5" fill="none" stroke="#4b342c" stroke-linecap="round" stroke-linejoin="round" stroke-width="2"/>
      <path id="Path_11032" data-name="Path 11032" d="M26.25,5.25a10.5,10.5,0,0,1,10.5,10.5" fill="none" stroke="#4b342c" stroke-linecap="round" stroke-linejoin="round" stroke-width="2"/>
    </g>
  </g>
</svg>
